The Call 2013 TS Real Line x264 AAC-OFFLiNE

iMDB  http://www.imdb.com/title/tt1911644

Source  720p UnKnOwN/Tooth Fairy  MANY THANKX

Repack Reason - last release had sync issue and wasn't line..Thanks Tooth Fairy Good To Have You Back
Shout Out To Our Syncer For THis Also so enjoy..W

Media Info
The Call 2013 TS RePACK x264 AAC-OFFLiNE.mp4
Format                                   : MPEG-4
Format profile                           : Base Media
Codec ID                                 : isom
File size                                : 1.41 GiB
Duration                                 : 1h 32mn
Overall bit rate mode                    : Variable
Overall bit rate                         : 2 171 Kbps

Video
ID                                       : 1
Format                                   : AVC
Format/Info                              : Advanced Video Codec
Format profile                           : High@L4.1
Format settings, CABAC                   : Yes
Format settings, ReFrames                : 3 frames
Format settings, GOP                     : M=4, N=29
Codec ID                                 : avc1
Codec ID/Info                            : Advanced Video Coding
Duration                                 : 1h 27mn
Bit rate mode                            : Variable
Bit rate                                 : 2 174 Kbps
Maximum bit rate                         : 40.0 Mbps
Width                                    : 720 pixels
Height                                   : 388 pixels
Display aspect ratio                     : 1.85:1
Frame rate mode                          : Constant
Frame rate                               : 29.970 fps
Color space                              : YUV
Chroma subsampling                       : 4:2:0
Bit depth                                : 8 bits
Scan type                                : Progressive
Bits/(Pixel*Frame)                       : 0.260
Stream size                              : 1.33 GiB (95%)
Title                                    : The Call 2013 TS RePACK x264 AAC-OFFLiNE
Writing library                          : x264 core 130 r2273 b3065e6

Audio
ID                                       : 2
Format                                   : AAC
Format/Info                              : Advanced Audio Codec
Format profile                           : LC
Codec ID                                 : 40
Duration                                 : 1h 32mn
Bit rate mode                            : Variable
Bit rate                                 : 111 Kbps
Maximum bit rate                         : 142 Kbps
Channel(s)                               : 2 channels
Channel positions                        : Front: L R
Sampling rate                            : 44.1 KHz
Compression mode                         : Lossy
Delay relative to video                  : 18s 300ms
Stream size                              : 73.6 MiB (5%)
Title                                    : synced
Language                                 : English

Screens 
http://i.imgur.com/i69iK98.png 
http://i.imgur.com/1OgNJoB.png 
http://i.imgur.com/YgEAHUI.png 
http://i.imgur.com/3MJtLN6.png 
http://i.imgur.com/kC6BNGO.png